<?xml version="1.0" standalone="no"?>
<!-- Generator: Adobe Fireworks 10, Export SVG Extension by Aaron Beall (http://fireworks.abeall.com) . Version: 0.6.0  -->
<!DOCTYPE svg PUBLIC "-//W3C//DTD SVG 1.1//EN" "http://www.w3.org/Graphics/SVG/1.1/DTD/svg11.dtd">
<svg id="logo_mini" viewBox="0 0 50 50" style="fill: #FFFFFF; background-color:#ffffff00" version="1.1"
	xmlns="http://www.w3.org/2000/svg" xmlns:xlink="http://www.w3.org/1999/xlink" xml:space="preserve"
	x="0px" y="0px" width="50px" height="50px"
>
<path d="M 44.0503 21.2388 L 44.0503 21.4776 L 44.2792 21.4776 C 44.6224 21.4776 44.8405 21.5821 44.9371 21.791 C 45.0318 22 45.0801 22.2743 45.0801 22.6157 L 45.0801 28.7612 L 48.8111 28.7612 C 49.0257 28.7612 49.2009 28.7127 49.3349 28.6119 C 49.4672 28.5112 49.5638 28.375 49.621 28.2034 L 50 27.1455 L 49.7872 27.0895 C 49.6228 27.5243 49.4011 27.8321 49.1204 28.0131 C 48.8398 28.194 48.4572 28.2836 47.9745 28.2836 L 46.1098 28.2836 L 46.1098 25.1791 L 48.9702 25.1791 L 48.9702 24.7015 L 46.1098 24.7015 L 46.1098 21.7164 L 48.0942 21.7164 C 48.5197 21.7164 48.8487 21.8228 49.0811 22.0317 C 49.3117 22.2407 49.4279 22.5746 49.4279 23.0299 L 49.6568 23.0299 L 49.6568 22.1623 C 49.6568 22.0485 49.6424 21.9347 49.6174 21.8228 C 49.5924 21.7108 49.5441 21.6138 49.4744 21.528 C 49.4047 21.444 49.3099 21.375 49.1901 21.3209 C 49.0686 21.2668 48.913 21.2388 48.7235 21.2388 L 44.0503 21.2388 ZM 41.7709 21.9888 C 42.1571 22.3284 42.4217 22.8358 42.5629 23.5075 L 42.7918 23.5075 C 42.7918 23.3769 42.79 23.2369 42.7864 23.0877 C 42.7828 22.9403 42.7721 22.7966 42.7578 22.6567 C 42.7435 22.5168 42.7149 22.3825 42.6756 22.2537 C 42.6362 22.1269 42.5826 22.0187 42.5182 21.9328 C 42.3216 21.6772 41.9998 21.4571 41.5546 21.2743 C 41.1095 21.0914 40.5553 21 39.892 21 C 39.3736 21 38.9034 21.1026 38.4851 21.3041 C 38.0649 21.5056 37.7074 21.7817 37.4124 22.1325 C 37.1156 22.4832 36.8904 22.8937 36.733 23.3657 C 36.5757 23.8396 36.4988 24.3451 36.4988 24.8862 C 36.4988 25.4571 36.59 25.9925 36.7724 26.4925 C 36.9547 26.9925 37.2104 27.4272 37.5393 27.8004 C 37.8683 28.1735 38.2598 28.4683 38.7175 28.681 C 39.1733 28.8918 39.6757 29 40.2228 29 C 40.7555 29 41.2364 28.9422 41.6673 28.8302 C 42.0981 28.7164 42.5111 28.5336 42.9062 28.2817 L 42.9062 26.1418 C 42.9062 25.9757 42.9151 25.8265 42.933 25.6922 C 42.9509 25.5597 42.9866 25.4459 43.0438 25.3507 C 43.101 25.2556 43.1833 25.1828 43.2906 25.1343 C 43.3978 25.0858 43.5355 25.0597 43.7071 25.0597 L 43.7071 24.8209 C 43.2923 24.8209 42.9616 24.8619 42.7185 24.9403 C 42.4753 25.0205 42.2894 25.125 42.1642 25.2537 C 42.0391 25.3825 41.9587 25.5243 41.9265 25.6791 C 41.8925 25.834 41.8764 25.9907 41.8764 26.1493 L 41.8764 28.125 C 41.6619 28.2463 41.4241 28.3433 41.1595 28.4142 C 40.8949 28.4869 40.566 28.5224 40.1709 28.5224 C 39.8098 28.5224 39.4701 28.4627 39.1519 28.3414 C 38.8319 28.2201 38.5512 28.0168 38.3099 27.7332 C 38.0667 27.4496 37.8772 27.0746 37.7378 26.6082 C 37.5983 26.1418 37.5286 25.569 37.5286 24.8862 C 37.5286 24.4627 37.5769 24.0466 37.677 23.6362 C 37.7771 23.2276 37.9326 22.8638 38.1472 22.5466 C 38.3617 22.2295 38.6352 21.972 38.9713 21.7743 C 39.3074 21.5765 39.7114 21.4776 40.1834 21.4776 C 40.8556 21.4776 41.3848 21.6493 41.7709 21.9888 ZM 36.3844 28.5224 C 36.2235 28.5075 36.0877 28.4776 35.9733 28.4328 C 35.8588 28.3881 35.7516 28.319 35.6515 28.2276 C 35.5513 28.1362 35.4619 28.0168 35.3833 27.8675 C 35.3028 27.7201 35.217 27.5392 35.1259 27.3265 L 32.7267 21.2388 L 32.3977 21.2388 L 29.2906 28.7612 L 29.7483 28.7612 L 30.6511 26.6119 L 33.8136 26.6119 L 34.0961 27.347 C 34.2123 27.6716 34.3518 27.9328 34.5162 28.1287 C 34.6789 28.3246 34.8452 28.4739 35.0168 28.5746 C 35.1866 28.6772 35.3529 28.7444 35.5174 28.7743 C 35.6819 28.8022 35.8249 28.819 35.9482 28.819 C 36.1145 28.819 36.2593 28.7985 36.3844 28.7612 L 36.3844 28.5224 ZM 32.2333 22.8433 L 33.5884 26.1343 L 30.8209 26.1343 L 32.2333 22.8433 ZM 22.7689 28.7612 L 23.2265 28.7612 L 23.2265 22.7854 L 27.9176 28.8806 L 28.1465 28.8806 L 28.1465 21.2388 L 27.6888 21.2388 L 27.6888 26.875 L 23.7986 21.9216 C 23.6306 21.709 23.4339 21.5429 23.2051 21.4216 C 22.9763 21.3004 22.6849 21.2388 22.3309 21.2388 L 21.6247 21.2388 L 21.6247 21.4776 L 21.7391 21.4776 C 22.136 21.4776 22.406 21.5821 22.5508 21.791 C 22.6956 22 22.7689 22.2743 22.7689 22.6157 L 22.7689 28.7612 ZM 19.3364 27.3937 C 19.3364 27.6828 19.3507 27.9142 19.3811 28.0896 C 19.4115 28.2649 19.4669 28.403 19.5473 28.5056 C 19.6278 28.6082 19.7351 28.6772 19.8691 28.7108 C 20.0014 28.7444 20.1677 28.7612 20.3661 28.7612 L 21.3959 28.7612 L 21.3959 28.5224 L 21.167 28.5224 C 20.8238 28.5224 20.6039 28.4179 20.5091 28.209 C 20.4126 28 20.3661 27.7257 20.3661 27.3843 L 20.3661 21.2388 L 19.3364 21.2388 L 19.3364 27.3937 ZM 12.7002 21.2388 L 12.7002 21.4776 L 12.9291 21.4776 C 13.2723 21.4776 13.4904 21.5821 13.587 21.791 C 13.6817 22 13.73 22.2743 13.73 22.6157 L 13.73 28.7612 L 14.7597 28.7612 L 14.7597 25.1791 L 17.2769 25.1791 L 17.2769 24.7015 L 14.7597 24.7015 L 14.7597 21.7164 L 16.4885 21.7164 C 16.9247 21.7164 17.259 21.8228 17.495 22.0317 C 17.731 22.2407 17.849 22.5746 17.849 23.0299 L 18.0778 23.0299 L 18.0778 22.1623 C 18.0778 22.0485 18.0635 21.9347 18.0385 21.8228 C 18.0117 21.7108 17.9634 21.6138 17.8937 21.528 C 17.8222 21.444 17.7256 21.375 17.604 21.3209 C 17.4825 21.2668 17.3252 21.2388 17.1339 21.2388 L 12.7002 21.2388 ZM 6.865 21.2388 L 6.865 21.4776 L 7.0938 21.4776 C 7.4371 21.4776 7.6552 21.5821 7.7517 21.791 C 7.8465 22 7.8947 22.2743 7.8947 22.6157 L 7.8947 28.7612 L 8.9245 28.7612 L 8.9245 25.1791 L 11.4416 25.1791 L 11.4416 24.7015 L 8.9245 24.7015 L 8.9245 21.7164 L 10.6533 21.7164 C 11.0895 21.7164 11.4238 21.8228 11.6597 22.0317 C 11.8957 22.2407 12.0137 22.5746 12.0137 23.0299 L 12.2426 23.0299 L 12.2426 22.1623 C 12.2426 22.0485 12.2283 21.9347 12.2032 21.8228 C 12.1764 21.7108 12.1281 21.6138 12.0584 21.528 C 11.9869 21.444 11.8904 21.375 11.7688 21.3209 C 11.6472 21.2668 11.4899 21.2388 11.2986 21.2388 L 6.865 21.2388 ZM 7.0938 28.5224 C 6.9329 28.5075 6.797 28.4776 6.6826 28.4328 C 6.5682 28.3881 6.461 28.319 6.3608 28.2276 C 6.2607 28.1362 6.1713 28.0168 6.0927 27.8675 C 6.0122 27.7201 5.9264 27.5392 5.8352 27.3265 L 3.4361 21.2388 L 3.1071 21.2388 L 0 28.7612 L 0.4577 28.7612 L 1.3605 26.6119 L 4.523 26.6119 L 4.8055 27.347 C 4.9217 27.6716 5.0611 27.9328 5.2256 28.1287 C 5.3883 28.3246 5.5546 28.4739 5.7262 28.5746 C 5.896 28.6772 6.0623 28.7444 6.2268 28.7743 C 6.3912 28.8022 6.5343 28.819 6.6576 28.819 C 6.8239 28.819 6.9687 28.7985 7.0938 28.7612 L 7.0938 28.5224 ZM 2.9426 22.8433 L 4.2978 26.1343 L 1.5303 26.1343 L 2.9426 22.8433 Z"/>
</svg>