<?xml version="1.0" standalone="no"?>
<!-- Generator: Adobe Fireworks 10, Export SVG Extension by Aaron Beall (http://fireworks.abeall.com) . Version: 0.6.0  -->
<!DOCTYPE svg PUBLIC "-//W3C//DTD SVG 1.1//EN" "http://www.w3.org/Graphics/SVG/1.1/DTD/svg11.dtd">
<svg id="" viewBox="0 0 240 24" style="background-color:#ffffff00" version="1.1"
	xmlns="http://www.w3.org/2000/svg" xmlns:xlink="http://www.w3.org/1999/xlink" xml:space="preserve"
	x="0px" y="0px" width="240px" height="24px"
>
	<g id="Layer%201">
		<g>
			<g>
				<path d="M 27.8129 0.0977 C 25.9426 0.0977 24.1406 0.8789 23.3246 2.3398 L 18.3605 11.8447 L 15.3004 6.0039 L 12.2404 11.8447 L 7.2761 2.3398 C 6.4602 0.9443 4.6582 0.0977 2.788 0.0977 L 0 0.0977 L 12.2404 23.46 L 15.3004 17.6211 L 18.3605 23.46 L 30.6008 0.0977 L 27.8129 0.0977 L 27.8129 0.0977 Z" fill="#000000"/>
				<path d="M 40.3732 0.0322 C 33.4933 0.0322 28.0181 5.1895 28.0181 11.7783 C 28.0181 18.3672 33.4933 23.5273 40.3732 23.5273 C 47.252 23.5273 52.7262 18.3672 52.7262 11.7783 C 52.7262 5.1895 47.252 0.0322 40.3732 0.0322 L 40.3732 0.0322 ZM 40.3732 18.4004 C 36.5356 18.4004 33.4589 15.4531 33.4589 11.7783 C 33.4589 8.1357 36.5356 5.1582 40.3732 5.1582 C 44.1758 5.1582 47.286 8.1357 47.286 11.7783 C 47.286 15.4531 44.1758 18.4004 40.3732 18.4004 L 40.3732 18.4004 Z" fill="#000000"/>
				<path d="M 66.4414 0.0322 C 59.5616 0.0322 54.0863 5.1895 54.0863 11.7783 C 54.0863 18.3672 59.5616 23.5273 66.4414 23.5273 C 73.3202 23.5273 78.7946 18.3672 78.7946 11.7783 C 78.7946 5.1895 73.3202 0.0322 66.4414 0.0322 L 66.4414 0.0322 ZM 66.4414 18.4004 C 62.6041 18.4004 59.5272 15.4531 59.5272 11.7783 C 59.5272 8.1357 62.6041 5.1582 66.4414 5.1582 C 70.2444 5.1582 73.3542 8.1357 73.3542 11.7783 C 73.3542 15.4531 70.2444 18.4004 66.4414 18.4004 L 66.4414 18.4004 Z" fill="#000000"/>
				<path d="M 100.3292 11.791 C 100.3292 9.3125 99.5471 7.0342 98.2552 5.0938 C 96.0791 2.0186 92.3978 0 88.2491 0 C 87.3199 0 86.4572 0.0957 85.5941 0.2891 C 83.5211 0.7051 81.6848 1.6328 80.1549 2.916 L 80.1549 17.1523 C 83.1469 17.1523 85.5941 14.7734 85.5941 11.791 L 85.5941 5.6602 C 86.3907 5.3252 87.2867 5.125 88.2491 5.125 C 91.9 5.125 94.8893 8.1064 94.8893 11.791 C 94.8893 11.8252 94.8893 11.8252 94.8893 11.8252 C 94.8893 15.4434 92.0325 18.0273 88.4816 18.0967 L 85.5941 18.0967 C 82.6708 18.0967 80.1549 20.7383 80.1549 23.9844 C 80.1549 23.9844 88.4484 24.0205 88.548 23.9844 C 89.3445 23.9844 90.141 23.873 90.9042 23.6875 C 93.9244 22.9141 96.5553 20.8857 98.2552 18.0967 C 99.5813 16.582 100.3292 14.3047 100.3292 11.8252 C 100.3292 11.8252 100.3292 11.8252 100.3292 11.791 L 100.3292 11.791 Z" fill="#000000"/>
				<path d="M 136.5984 11.791 C 136.5984 9.3125 135.8164 7.0342 134.5243 5.0938 C 132.3484 2.0186 128.6667 0 124.5184 0 C 123.589 0 122.7261 0.0957 121.8632 0.2891 C 119.7902 0.7051 117.954 1.6328 116.424 2.916 L 116.424 17.1523 C 119.4161 17.1523 121.8632 14.7734 121.8632 11.791 L 121.8632 5.6602 C 122.6598 5.3252 123.5558 5.125 124.5184 5.125 C 128.1691 5.125 131.1582 8.1064 131.1582 11.791 C 131.1582 11.8252 131.1582 11.8252 131.1582 11.8252 C 131.1582 15.4434 128.3018 18.0273 124.7505 18.0967 L 121.8632 18.0967 C 118.9401 18.0967 116.424 20.7383 116.424 23.9844 C 116.424 23.9844 124.7174 24.0205 124.817 23.9844 C 125.6134 23.9844 126.41 23.873 127.1735 23.6875 C 130.1935 22.9141 132.8243 20.8857 134.5243 18.0967 C 135.8505 16.582 136.5984 14.3047 136.5984 11.8252 C 136.5984 11.8252 136.5984 11.8252 136.5984 11.791 L 136.5984 11.791 Z" fill="#000000"/>
				<path d="M 144.6002 23.4922 L 144.6002 5.3242 C 144.6002 2.4688 142.1523 0.1328 139.1602 0.1328 L 139.1602 18.3008 C 139.1602 21.1563 141.6082 23.4922 144.6002 23.4922 L 144.6002 23.4922 Z" fill="#000000"/>
				<path d="M 167.3025 9.75 L 161.8623 9.75 C 158.9369 9.75 156.5475 12.0566 156.5475 14.875 L 161.8623 14.875 L 161.8623 17.9023 C 161.061 18.2246 160.1649 18.4004 159.2025 18.4004 C 155.5518 18.4004 152.5649 15.7871 152.5649 12.3135 L 152.5649 12.3135 C 152.5649 8.5576 155.4191 5.6699 158.9702 5.5391 L 161.8623 5.5391 C 164.7865 5.5391 167.3025 3.0918 167.3025 0.0977 C 167.3025 0.0977 159.0034 0.0977 158.9038 0.0977 C 158.0741 0.1328 157.3108 0.2363 156.5475 0.4063 C 153.5275 1.1201 150.902 2.9893 149.202 5.5391 C 147.876 7.4092 147.1278 9.668 147.1278 12.0254 L 147.1278 12.0254 C 147.1278 14.3848 147.876 16.584 149.202 18.4004 C 151.3781 21.5078 155.054 23.5273 159.2025 23.5273 C 160.1317 23.5273 160.9946 23.4297 161.8623 23.2383 C 163.9363 22.7891 165.7723 21.8604 167.3025 20.5791 L 167.3025 9.4766 L 167.3025 9.75 L 167.3025 9.75 Z" fill="#000000"/>
				<path d="M 175.2023 23.4922 L 175.2023 5.3242 C 175.2023 2.4688 172.7542 0.1328 169.7622 0.1328 L 169.7622 18.3008 C 169.7622 21.1563 172.2103 23.4922 175.2023 23.4922 L 175.2023 23.4922 Z" fill="#000000"/>
				<path d="M 182.7399 0.0322 C 179.7477 0.0322 177.2996 2.3398 177.2996 5.1582 L 185.4598 5.1582 L 185.4598 23.46 C 188.4519 23.46 190.8999 21.1064 190.8999 18.2305 L 190.8999 5.1582 L 193.6202 5.1582 C 196.6122 5.1582 199.0602 2.8516 199.0602 0.0322 L 182.7399 0.0322 L 182.7399 0.0322 Z" fill="#000000"/>
				<path d="M 207.052 0.0977 L 194.8116 23.5273 L 202.9038 23.5273 C 205.896 23.5273 208.3439 21.2197 208.3439 18.4004 L 203.7538 18.4004 L 207.052 11.7979 L 212.0161 21.3164 C 212.7642 22.6289 214.6342 23.5273 216.5042 23.5273 L 219.2922 23.5273 L 207.052 0.0977 L 207.052 0.0977 Z" fill="#000000"/>
				<path d="M 225.8556 18.4326 L 225.8556 0.1279 C 222.8636 0.1279 220.4156 2.4814 220.4156 5.3574 L 220.4156 23.5586 L 234.5598 23.5586 C 237.552 23.5586 240 21.252 240 18.4326 L 225.8556 18.4326 L 225.8556 18.4326 Z" fill="#000000"/>
			</g>
		</g>
	</g>
</svg>