<?xml version="1.0" standalone="no"?>
<!-- Generator: Adobe Fireworks 10, Export SVG Extension by Aaron Beall (http://fireworks.abeall.com) . Version: 0.6.0  -->
<!DOCTYPE svg PUBLIC "-//W3C//DTD SVG 1.1//EN" "http://www.w3.org/Graphics/SVG/1.1/DTD/svg11.dtd">
<svg id="" viewBox="0 0 121 13" style="background-color:#ffffff00" version="1.1"
	xmlns="http://www.w3.org/2000/svg" xmlns:xlink="http://www.w3.org/1999/xlink" xml:space="preserve"
	x="0px" y="0px" width="100%" height="100%" fill="#fff"
>
	<g id="Layer%201">
		<g>
			<path d="M 14.0223 0.0535 C 13.0795 0.0535 12.1709 0.476 11.7595 1.2668 L 9.2568 6.416 L 7.7139 3.2526 L 6.1711 6.416 L 3.6685 1.2668 C 3.257 0.511 2.3485 0.0535 1.4056 0.0535 L 0 0.0535 L 6.1711 12.7075 L 7.7139 9.5441 L 9.2568 12.7075 L 15.4279 0.0535 L 14.0223 0.0535 L 14.0223 0.0535 Z" fill="#fff"/>
			<path d="M 20.3547 0.0174 C 16.8862 0.0174 14.1257 2.8107 14.1257 6.3799 C 14.1257 9.949 16.8862 12.7436 20.3547 12.7436 C 23.8228 12.7436 26.5828 9.949 26.5828 6.3799 C 26.5828 2.8107 23.8228 0.0174 20.3547 0.0174 L 20.3547 0.0174 ZM 20.3547 9.9669 C 18.4201 9.9669 16.8688 8.3707 16.8688 6.3799 C 16.8688 4.4069 18.4201 2.7938 20.3547 2.7938 C 22.2721 2.7938 23.84 4.4069 23.84 6.3799 C 23.84 8.3707 22.2721 9.9669 20.3547 9.9669 L 20.3547 9.9669 Z" fill="#fff"/>
			<path d="M 33.4975 0.0174 C 30.029 0.0174 27.2686 2.8107 27.2686 6.3799 C 27.2686 9.949 30.029 12.7436 33.4975 12.7436 C 36.9657 12.7436 39.7256 9.949 39.7256 6.3799 C 39.7256 2.8107 36.9657 0.0174 33.4975 0.0174 L 33.4975 0.0174 ZM 33.4975 9.9669 C 31.5629 9.9669 30.0117 8.3707 30.0117 6.3799 C 30.0117 4.4069 31.5629 2.7938 33.4975 2.7938 C 35.4149 2.7938 36.9828 4.4069 36.9828 6.3799 C 36.9828 8.3707 35.4149 9.9669 33.4975 9.9669 L 33.4975 9.9669 Z" fill="#fff"/>
			<path d="M 49.8358 6.3872 C 49.8358 5.0443 49.4414 3.8102 48.7901 2.7592 C 47.6931 1.0933 45.8369 0 43.7454 0 C 43.277 0 42.8419 0.052 42.4067 0.1563 C 41.3616 0.3817 40.4359 0.8851 39.6644 1.579 L 39.6644 9.2908 C 41.173 9.2908 42.4067 8.0023 42.4067 6.3872 L 42.4067 3.0662 C 42.8084 2.8846 43.2601 2.7766 43.7454 2.7766 C 45.5859 2.7766 47.093 4.3909 47.093 6.3872 C 47.093 6.4053 47.093 6.4053 47.093 6.4053 C 47.093 8.3651 45.6529 9.7645 43.8625 9.8024 L 42.4067 9.8024 C 40.933 9.8024 39.6644 11.2333 39.6644 12.9911 C 39.6644 12.9911 43.8458 13.011 43.8959 12.9911 C 44.2976 12.9911 44.6991 12.9312 45.084 12.8313 C 46.6066 12.4117 47.933 11.3132 48.7901 9.8024 C 49.4587 8.9822 49.8358 7.7482 49.8358 6.4053 C 49.8358 6.4053 49.8358 6.4053 49.8358 6.3872 L 49.8358 6.3872 Z" fill="#fff"/>
			<path d="M 68.8683 6.3872 C 68.8683 5.0443 68.4741 3.8102 67.8227 2.7592 C 66.7256 1.0933 64.8695 0 62.778 0 C 62.3094 0 61.8745 0.052 61.4393 0.1563 C 60.3942 0.3817 59.4684 0.8851 58.6971 1.579 L 58.6971 9.2908 C 60.2055 9.2908 61.4393 8.0023 61.4393 6.3872 L 61.4393 3.0662 C 61.841 2.8846 62.2927 2.7766 62.778 2.7766 C 64.6186 2.7766 66.1255 4.3909 66.1255 6.3872 C 66.1255 6.4053 66.1255 6.4053 66.1255 6.4053 C 66.1255 8.3651 64.6854 9.7645 62.8951 9.8024 L 61.4393 9.8024 C 59.9656 9.8024 58.6971 11.2333 58.6971 12.9911 C 58.6971 12.9911 62.8784 13.011 62.9286 12.9911 C 63.3301 12.9911 63.7316 12.9312 64.1166 12.8313 C 65.6392 12.4117 66.9657 11.3132 67.8227 9.8024 C 68.4912 8.9822 68.8683 7.7482 68.8683 6.4053 C 68.8683 6.4053 68.8683 6.4053 68.8683 6.3872 L 68.8683 6.3872 Z" fill="#fff"/>
			<path d="M 72.9027 12.7247 L 72.9027 2.8837 C 72.9027 1.337 71.6683 0.0718 70.1599 0.0718 L 70.1599 9.9131 C 70.1599 11.4596 71.394 12.7247 72.9027 12.7247 L 72.9027 12.7247 Z" fill="#fff"/>
			<path d="M 84.3484 5.2815 L 81.6056 5.2815 C 80.1307 5.2815 78.926 6.5308 78.926 8.0579 L 81.6056 8.0579 L 81.6056 9.6965 C 81.2015 9.8716 80.7498 9.9669 80.2646 9.9669 C 78.4241 9.9669 76.9181 8.5514 76.9181 6.6697 L 76.9181 6.6697 C 76.9181 4.6354 78.3572 3.071 80.1475 3.0001 L 81.6056 3.0001 C 83.0798 3.0001 84.3484 1.6743 84.3484 0.0535 C 84.3484 0.0535 80.1642 0.0535 80.114 0.0535 C 79.6957 0.0724 79.3109 0.1277 78.926 0.2198 C 77.4034 0.6064 76.0798 1.6191 75.2227 3.0001 C 74.5542 4.0132 74.177 5.2363 74.177 6.514 L 74.177 6.514 C 74.177 7.7916 74.5542 8.983 75.2227 9.9669 C 76.3198 11.6503 78.173 12.7436 80.2646 12.7436 C 80.733 12.7436 81.1681 12.6914 81.6056 12.5873 C 82.6512 12.3443 83.5769 11.8411 84.3484 11.147 L 84.3484 5.1331 L 84.3484 5.2815 L 84.3484 5.2815 Z" fill="#fff"/>
			<path d="M 87.5843 12.7247 L 87.5843 2.8837 C 87.5843 1.337 86.35 0.0718 84.8414 0.0718 L 84.8414 9.9131 C 84.8414 11.4596 86.0758 12.7247 87.5843 12.7247 L 87.5843 12.7247 Z" fill="#fff"/>
			<path d="M 91.3844 0.0174 C 89.876 0.0174 88.6416 1.2668 88.6416 2.7938 L 92.7557 2.7938 L 92.7557 12.7075 C 94.2643 12.7075 95.4985 11.4326 95.4985 9.8745 L 95.4985 2.7938 L 96.8699 2.7938 C 98.3783 2.7938 99.6127 1.5445 99.6127 0.0174 L 91.3844 0.0174 L 91.3844 0.0174 Z" fill="#fff"/>
			<path d="M 103.6418 0.0535 L 97.4706 12.7436 L 101.5505 12.7436 C 103.059 12.7436 104.2931 11.4941 104.2931 9.9669 L 101.9791 9.9669 L 103.6418 6.3904 L 106.1445 11.5461 C 106.5216 12.2576 107.4645 12.7436 108.4073 12.7436 L 109.813 12.7436 L 103.6418 0.0535 L 103.6418 0.0535 Z" fill="#fff"/>
			<path d="M 113.869 9.9844 L 113.869 0.0693 C 112.3604 0.0693 111.1262 1.3441 111.1262 2.9022 L 111.1262 12.7609 L 118.2573 12.7609 C 119.7657 12.7609 121 11.5114 121 9.9844 L 113.869 9.9844 L 113.869 9.9844 Z" fill="#fff"/>
		</g>
	</g>
</svg>